<svg width="40" height="40" viewBox="0 0 40 40" fill="none" xmlns="http://www.w3.org/2000/svg">
<path d="M16.6666 3.33334H4.99992C3.99992 3.33334 3.33325 4.00001 3.33325 5.00001V16.6667C3.33325 17.6667 3.99992 18.3333 4.99992 18.3333H16.6666C17.6666 18.3333 18.3333 17.6667 18.3333 16.6667V5.00001C18.3333 4.00001 17.6666 3.33334 16.6666 3.33334ZM16.6666 21.6667H4.99992C3.99992 21.6667 3.33325 22.3333 3.33325 23.3333V35C3.33325 36 3.99992 36.6667 4.99992 36.6667H16.6666C17.6666 36.6667 18.3333 36 18.3333 35V23.3333C18.3333 22.3333 17.6666 21.6667 16.6666 21.6667ZM34.9999 3.33334H23.3333C22.3333 3.33334 21.6666 4.00001 21.6666 5.00001V16.6667C21.6666 17.6667 22.3333 18.3333 23.3333 18.3333H34.9999C35.9999 18.3333 36.6666 17.6667 36.6666 16.6667V5.00001C36.6666 4.00001 35.9999 3.33334 34.9999 3.33334ZM34.9999 21.6667H23.3333C22.3333 21.6667 21.6666 22.3333 21.6666 23.3333V35C21.6666 36 22.3333 36.6667 23.3333 36.6667H34.9999C35.9999 36.6667 36.6666 36 36.6666 35V23.3333C36.6666 22.3333 35.9999 21.6667 34.9999 21.6667Z" fill="#F8F9FA"/>
</svg>
